<?xml version="1.0" encoding="UTF-8" standalone="no"?>
<!-- Created with Inkscape (http://www.inkscape.org/) -->

<svg
   xmlns:dc="http://purl.org/dc/elements/1.1/"
   xmlns:cc="http://creativecommons.org/ns#"
   xmlns:rdf="http://www.w3.org/1999/02/22-rdf-syntax-ns#"
   xmlns:svg="http://www.w3.org/2000/svg"
   xmlns="http://www.w3.org/2000/svg"
   xmlns:sodipodi="http://sodipodi.sourceforge.net/DTD/sodipodi-0.dtd"
   xmlns:inkscape="http://www.inkscape.org/namespaces/inkscape"
   width="1000"
   height="1000"
   viewBox="0 0 264.58333 264.58334"
   version="1.1"
   id="svg8"
   inkscape:version="0.92.3 (2405546, 2018-03-11)"
   sodipodi:docname="rysunek-1.svg">
  <defs
     id="defs2">
    <inkscape:perspective
       sodipodi:type="inkscape:persp3d"
       inkscape:vp_x="0 : 132.29167 : 1"
       inkscape:vp_y="0 : 1000 : 0"
       inkscape:vp_z="264.58333 : 132.29167 : 1"
       inkscape:persp3d-origin="132.29166 : 88.194447 : 1"
       id="perspective1131" />
  </defs>
  <sodipodi:namedview
     id="base"
     pagecolor="#ffffff"
     bordercolor="#666666"
     borderopacity="1.0"
     inkscape:pageopacity="0.0"
     inkscape:pageshadow="2"
     inkscape:zoom="1.979899"
     inkscape:cx="653.55835"
     inkscape:cy="159.55366"
     inkscape:document-units="mm"
     inkscape:current-layer="layer5"
     showgrid="false"
     units="px"
     inkscape:window-width="1920"
     inkscape:window-height="976"
     inkscape:window-x="-8"
     inkscape:window-y="-8"
     inkscape:window-maximized="1"
     inkscape:snap-to-guides="true"
     inkscape:snap-grids="true"
     inkscape:snap-others="false"
     inkscape:object-nodes="true"
     inkscape:snap-nodes="true"
     inkscape:snap-global="false"
     inkscape:snap-bbox="true"
     inkscape:object-paths="true"
     showguides="true"
     inkscape:guide-bbox="true">
    <sodipodi:guide
       position="171.91679,67.351923"
       orientation="0,1"
       id="guide1119"
       inkscape:locked="false" />
  </sodipodi:namedview>
  <metadata
     id="metadata5">
    <rdf:RDF>
      <cc:Work
         rdf:about="">
        <dc:format>image/svg+xml</dc:format>
        <dc:type
           rdf:resource="http://purl.org/dc/dcmitype/StillImage" />
        <dc:title></dc:title>
      </cc:Work>
    </rdf:RDF>
  </metadata>
  <g
     inkscape:label="ludek"
     inkscape:groupmode="layer"
     id="layer1"
     transform="translate(0,-32.41665)"
     style="display:inline">
    <ellipse
       style="opacity:1;vector-effect:none;fill:#ffe6d5;fill-opacity:1;stroke:#00daff;stroke-width:0.56499994;stroke-linecap:butt;stroke-linejoin:miter;stroke-miterlimit:4;stroke-dasharray:none;stroke-dashoffset:0;stroke-opacity:0"
       id="path815"
       cx="127.23914"
       cy="142.31979"
       rx="27.822037"
       ry="30.947481" />
    <path
       style="display:inline;fill:#cccccc;fill-opacity:0.18283584;stroke:#ffeeaa;stroke-width:0.26458332px;stroke-linecap:butt;stroke-linejoin:miter;stroke-opacity:0"
       d="m 126.59463,112.21431 c -4.4224,0.0144 -8.89609,0.94565 -11.49623,2.69103 0,0 -0.12734,0.13914 -0.29665,0.33162 -5.21998,3.01369 -14.894224,11.43509 -15.135341,22.5657 -0.59766,4.65359 0.597511,3.989 1.045771,2.9918 0.44825,-0.9972 1.49435,-6.6481 2.8391,-7.64529 1.34473,-0.99719 4.1835,-6.14913 6.42472,-6.81393 0.84312,-0.25009 2.23608,-0.92372 3.64578,-1.72855 1.48869,1.06114 3.64401,0.1265 5.83295,-0.017 3.27833,-0.21485 10.17494,-1.15655 15.33175,0.0514 0.99396,0.18946 3.37063,0.11737 5.35632,-0.52596 1.67164,1.01267 3.46926,1.92048 4.47922,2.22006 2.24122,0.6648 5.07999,5.81674 6.42473,6.81393 1.34474,0.9972 2.39083,6.64809 2.83909,7.64528 0.44823,0.99721 1.64342,1.6618 1.04576,-2.99178 -0.21291,-9.82818 -7.7808,-17.54349 -13.14302,-21.29012 0.76078,-0.61866 1.47848,-1.32813 1.81801,-1.94963 -3.88388,0.59821 -8.69496,-1.70106 -13.98263,-2.21082 -0.99144,-0.0956 -2.00876,-0.14112 -3.02933,-0.13779 z m 9.71833,9.00367 c 0.0286,0.003 0.0576,0.004 0.0864,0.007 0.0184,0.0282 0.041,0.0575 0.0628,0.0869 -0.0495,-0.0321 -0.10025,-0.0595 -0.14909,-0.0936 z"
       id="path902"
       inkscape:connector-curvature="0" />
    <path
       style="display:inline;fill:#fff6d5;stroke:#ffeeaa;stroke-width:0.26458332px;stroke-linecap:butt;stroke-linejoin:miter;stroke-opacity:1"
       d="m 99.54913,136.92809 c -0.60071,4.67732 0.60071,4.00913 1.05124,3.00685 0.45053,-1.00228 1.50176,-6.6819 2.85336,-7.68418 1.35159,-1.00227 4.20494,-6.18074 6.45759,-6.84892 2.25265,-0.66819 8.4099,-4.34323 8.4099,-5.51256 0,-1.16933 2.10247,-7.18303 -0.75088,-6.84893 -2.85337,0.33409 -17.72086,10.02283 -18.02121,23.88774 z"
       id="path850"
       inkscape:connector-curvature="0" />
    <path
       inkscape:connector-curvature="0"
       id="path852"
       d="m 155.09608,136.92809 c 0.60071,4.67732 -0.60071,4.00913 -1.05123,3.00685 -0.45054,-1.00228 -1.50177,-6.6819 -2.85337,-7.68418 -1.35158,-1.00227 -4.20494,-6.18074 -6.45759,-6.84892 -2.25265,-0.66819 -8.4099,-4.34323 -8.4099,-5.51256 0,-1.16933 -2.10248,-7.18303 0.75089,-6.84893 2.85336,0.33409 17.72084,10.02283 18.0212,23.88774 z"
       style="display:inline;fill:#fff6d5;stroke:#ffeeaa;stroke-width:0.26458332px;stroke-linecap:butt;stroke-linejoin:miter;stroke-opacity:1" />
    <path
       style="display:inline;fill:#fff6d5;stroke:#ffeeaa;stroke-width:0.26458332px;stroke-linecap:butt;stroke-linejoin:miter;stroke-opacity:1"
       d="m 115.49812,114.10506 c 0,0 -3.59538,3.77344 -3.14145,6.3229 1.003,5.63328 4.22535,3.62694 7.52037,3.41098 3.29505,-0.21595 10.22653,-1.16242 15.40963,0.0517 1.717,0.32728 7.54805,-0.11006 8.412,-2.93299 -1.68017,0.48709 -4.59949,1.08109 -6.87743,-0.5077 3.01932,0.32342 6.41763,-2.29949 7.09441,-2.63796 -1.9362,-0.21634 -4.24922,-0.38939 -3.65589,-0.69163 1.03878,-0.52913 3.21465,-2.11894 3.89225,-3.35929 -3.90368,0.60126 -8.73917,-1.70995 -14.05381,-2.2223 -5.31464,-0.51236 -11.3836,0.4072 -14.60008,2.56631 z"
       id="path860"
       inkscape:connector-curvature="0"
       sodipodi:nodetypes="cszccccsczc" />
  </g>
  <g
     inkscape:groupmode="layer"
     id="layer5"
     inkscape:label="zawartość kółek"
     style="display:inline">
    <ellipse
       ry="29.704077"
       rx="29.562031"
       cy="44.979168"
       cx="58.964279"
       id="ellipse982"
       style="opacity:1;vector-effect:none;fill:#d5f6ff;fill-opacity:1;stroke:none;stroke-width:3;stroke-linecap:butt;stroke-linejoin:miter;stroke-miterlimit:4;stroke-dasharray:none;stroke-dashoffset:0;stroke-opacity:0.97014926" />
    <rect
       rx="4.0632424"
       style="opacity:1;vector-effect:none;fill:#cccccc;fill-opacity:1;stroke:none;stroke-width:1;stroke-linecap:butt;stroke-linejoin:miter;stroke-miterlimit:4;stroke-dasharray:none;stroke-dashoffset:0;stroke-opacity:0.97014926"
       id="rect933"
       width="52.818958"
       height="33.837761"
       x="31.845417"
       y="27.10088"
       ry="4.0632424" />
    <rect
       ry="0"
       y="29.311003"
       x="33.785088"
       height="29.417511"
       width="48.939594"
       id="rect937"
       style="opacity:1;vector-effect:none;fill:#666666;fill-opacity:0.85074618;stroke:none;stroke-width:1;stroke-linecap:butt;stroke-linejoin:miter;stroke-miterlimit:4;stroke-dasharray:none;stroke-dashoffset:0;stroke-opacity:0.97014926"
       rx="0" />
    <path
       style="fill:#808080;stroke:none;stroke-width:0.26458332px;stroke-linecap:butt;stroke-linejoin:miter;stroke-opacity:1"
       d="M 63.477106,29.311004 50.794588,58.728515 H 82.724685 V 29.311004 Z"
       id="path939"
       inkscape:connector-curvature="0" />
    <rect
       style="opacity:1;vector-effect:none;fill:#b3b3b3;fill-opacity:1;stroke:none;stroke-width:1;stroke-linecap:butt;stroke-linejoin:miter;stroke-miterlimit:4;stroke-dasharray:none;stroke-dashoffset:0;stroke-opacity:0.97014926"
       id="rect963"
       width="9.6009207"
       height="5.3913465"
       x="54.140213"
       y="60.938641" />
    <rect
       style="opacity:1;vector-effect:none;fill:#cccccc;fill-opacity:1;stroke:none;stroke-width:1;stroke-linecap:butt;stroke-linejoin:miter;stroke-miterlimit:4;stroke-dasharray:none;stroke-dashoffset:0;stroke-opacity:0.97014926"
       id="rect965"
       width="20.467897"
       height="1.5089042"
       x="48.337456"
       y="65.898872" />
    <ellipse
       style="opacity:1;vector-effect:none;fill:#f2f2f2;fill-opacity:1;stroke:none;stroke-width:3;stroke-linecap:butt;stroke-linejoin:miter;stroke-miterlimit:4;stroke-dasharray:none;stroke-dashoffset:0;stroke-opacity:0.97014926"
       id="ellipse1071"
       cx="202.21725"
       cy="45.735119"
       rx="29.562031"
       ry="29.704077" />
    <g
       id="g1085"
       transform="matrix(1.6132809,0,0,1.6132809,-143.25228,-116.64603)"
       style="stroke-width:0.61985487;stroke:#cccccc">
      <circle
         r="1.700893"
         cy="100.73066"
         cx="217.90326"
         id="path1073"
         style="opacity:1;vector-effect:none;fill:#cccccc;fill-opacity:1;stroke:#cccccc;stroke-width:0.61985481;stroke-linecap:butt;stroke-linejoin:miter;stroke-miterlimit:4;stroke-dasharray:none;stroke-dashoffset:0;stroke-opacity:0.97014926" />
      <path
         d="m 213.69854,98.009956 a 5.0081849,5.0081849 0 0 1 4.25014,-2.287275 5.0081849,5.0081849 0 0 1 4.20796,2.363987"
         sodipodi:open="true"
         sodipodi:end="5.7270191"
         sodipodi:start="3.7158976"
         sodipodi:ry="5.0081849"
         sodipodi:rx="5.0081849"
         sodipodi:cy="100.73066"
         sodipodi:cx="217.90326"
         sodipodi:type="arc"
         style="opacity:1;vector-effect:none;fill:none;fill-opacity:1;stroke:#cccccc;stroke-width:1.54963708;stroke-linecap:butt;stroke-linejoin:miter;stroke-miterlimit:4;stroke-dasharray:none;stroke-dashoffset:0;stroke-opacity:0.97014926"
         id="circle1075" />
      <path
         d="m 210.54255,95.592051 a 8.9769344,8.9769344 0 0 1 7.45701,-3.837809 8.9769344,8.9769344 0 0 1 7.37296,3.99691"
         sodipodi:open="true"
         sodipodi:end="5.6951827"
         sodipodi:start="3.7510512"
         sodipodi:ry="8.9769344"
         sodipodi:rx="8.9769344"
         sodipodi:cy="100.73066"
         sodipodi:cx="217.90326"
         sodipodi:type="arc"
         id="circle1077"
         style="opacity:1;vector-effect:none;fill:none;fill-opacity:1;stroke:#cccccc;stroke-width:1.54963708;stroke-linecap:butt;stroke-linejoin:miter;stroke-miterlimit:4;stroke-dasharray:none;stroke-dashoffset:0;stroke-opacity:0.97014926" />
      <path
         d="m 207.40052,93.324883 a 12.85119,12.85119 0 0 1 10.5248,-5.445394 12.85119,12.85119 0 0 1 10.50604,5.481497"
         sodipodi:open="true"
         sodipodi:end="5.6724593"
         sodipodi:start="3.755752"
         sodipodi:ry="12.85119"
         sodipodi:rx="12.85119"
         sodipodi:cy="100.73066"
         sodipodi:cx="217.90326"
         sodipodi:type="arc"
         style="opacity:1;vector-effect:none;fill:none;fill-opacity:1;stroke:#cccccc;stroke-width:1.54963696;stroke-linecap:butt;stroke-linejoin:miter;stroke-miterlimit:4;stroke-dasharray:none;stroke-dashoffset:0;stroke-opacity:0.97014926"
         id="circle1079" />
    </g>
    <g
       id="g1107"
       transform="matrix(0.72927479,0,0,0.7252474,46.364467,-20.590944)"
       style="stroke-width:1.3750273">
      <rect
         y="103.41981"
         x="183.61417"
         height="12.294398"
         width="12.294398"
         id="rect1087"
         style="opacity:1;vector-effect:none;fill:none;fill-opacity:1;stroke:#cccccc;stroke-width:3.43756819;stroke-linecap:butt;stroke-linejoin:miter;stroke-miterlimit:4;stroke-dasharray:none;stroke-dashoffset:0;stroke-opacity:0.97014926" />
      <rect
         style="opacity:1;vector-effect:none;fill:none;fill-opacity:1;stroke:#cccccc;stroke-width:3.43756819;stroke-linecap:butt;stroke-linejoin:miter;stroke-miterlimit:4;stroke-dasharray:none;stroke-dashoffset:0;stroke-opacity:0.97014926"
         id="rect1089"
         width="12.294398"
         height="12.294398"
         x="211.94473"
         y="103.41981" />
      <rect
         y="83.385338"
         x="197.53369"
         height="12.294398"
         width="12.294398"
         id="rect1091"
         style="opacity:1;vector-effect:none;fill:none;fill-opacity:1;stroke:#cccccc;stroke-width:3.43756819;stroke-linecap:butt;stroke-linejoin:miter;stroke-miterlimit:4;stroke-dasharray:none;stroke-dashoffset:0;stroke-opacity:0.97014926" />
      <g
         transform="matrix(1,0,0,0.94474889,0,5.3343151)"
         style="stroke:#cccccc;stroke-width:3.53665829;stroke-miterlimit:4;stroke-dasharray:none"
         id="g1099">
        <path
           style="fill:none;stroke:#cccccc;stroke-width:3.53665829;stroke-linecap:butt;stroke-linejoin:miter;stroke-miterlimit:4;stroke-dasharray:none;stroke-opacity:1"
           d="m 190.02863,103.41981 v 0 -3.728592 h 28.81958 v 3.728592 h 0.0945"
           id="path1093"
           inkscape:connector-curvature="0" />
        <path
           style="fill:none;stroke:#cccccc;stroke-width:3.53665829;stroke-linecap:butt;stroke-linejoin:miter;stroke-miterlimit:4;stroke-dasharray:none;stroke-opacity:1"
           d="m 203.72916,95.679735 v 4.011483"
           id="path1095"
           inkscape:connector-curvature="0" />
      </g>
    </g>
    <ellipse
       ry="29.704077"
       rx="29.562031"
       cy="205.82957"
       cx="126.04544"
       id="ellipse1115"
       style="opacity:1;vector-effect:none;fill:#e3f4d7;fill-opacity:1;stroke:none;stroke-width:3;stroke-linecap:butt;stroke-linejoin:miter;stroke-miterlimit:4;stroke-dasharray:none;stroke-dashoffset:0;stroke-opacity:0.97014926" />
    <g
       id="g1167"
       transform="translate(-60.670183,-12.294398)">
      <rect
         rx="1.6063988"
         ry="1.6063989"
         y="200.70534"
         x="174.625"
         height="42.52232"
         width="56.223957"
         id="rect1124"
         style="opacity:1;vector-effect:none;fill:#aade87;fill-opacity:1;stroke:none;stroke-width:2.5;stroke-linecap:butt;stroke-linejoin:miter;stroke-miterlimit:4;stroke-dasharray:none;stroke-dashoffset:0;stroke-opacity:0.97014926" />
      <path
         id="rect1126"
         transform="scale(0.26458333)"
         d="m 666.07227,758.57227 c -3.36358,0 -6.07227,2.70674 -6.07227,6.07031 v 30 h 212.5 v -30 c 0,-3.36357 -2.70869,-6.07031 -6.07227,-6.07031 z"
         style="opacity:1;vector-effect:none;fill:#447821;fill-opacity:1;stroke:none;stroke-width:9.44881916;stroke-linecap:butt;stroke-linejoin:miter;stroke-miterlimit:4;stroke-dasharray:none;stroke-dashoffset:0;stroke-opacity:0.97014926"
         inkscape:connector-curvature="0" />
      <rect
         ry="1.0394346"
         rx="1.6063992"
         y="205.03586"
         x="176.64278"
         height="0.57171285"
         width="5.7641368"
         id="rect1147"
         style="opacity:1;vector-effect:none;fill:#e3f4d7;fill-opacity:1;stroke:none;stroke-width:2.5;stroke-linecap:butt;stroke-linejoin:miter;stroke-miterlimit:4;stroke-dasharray:none;stroke-dashoffset:0;stroke-opacity:0.97014926" />
      <rect
         style="opacity:1;vector-effect:none;fill:#e3f4d7;fill-opacity:1;stroke:none;stroke-width:2.5;stroke-linecap:butt;stroke-linejoin:miter;stroke-miterlimit:4;stroke-dasharray:none;stroke-dashoffset:0;stroke-opacity:0.97014926"
         id="rect1149"
         width="5.7641368"
         height="0.57171285"
         x="223.32283"
         y="205.03586"
         rx="1.6063992"
         ry="1.0394346" />
      <path
         sodipodi:nodetypes="ccc"
         inkscape:connector-curvature="0"
         id="path1151"
         d="m 176.79879,214.13621 v -1.87089 h 1.87089"
         style="fill:none;stroke:#44aa00;stroke-width:0.26458332px;stroke-linecap:butt;stroke-linejoin:miter;stroke-opacity:1" />
      <path
         style="fill:none;stroke:#44aa00;stroke-width:0.26458332px;stroke-linecap:butt;stroke-linejoin:miter;stroke-opacity:1"
         d="m 228.44997,214.13621 v -1.87089 h -1.87089"
         id="path1153"
         inkscape:connector-curvature="0"
         sodipodi:nodetypes="ccc" />
      <path
         style="fill:none;stroke:#44aa00;stroke-width:0.26458332px;stroke-linecap:butt;stroke-linejoin:miter;stroke-opacity:1"
         d="m 176.79879,238.85998 v 1.87089 h 1.87089"
         id="path1155"
         inkscape:connector-curvature="0"
         sodipodi:nodetypes="ccc" />
      <path
         sodipodi:nodetypes="ccc"
         inkscape:connector-curvature="0"
         id="path1157"
         d="m 228.24952,238.85998 v 1.87089 h -1.87089"
         style="fill:none;stroke:#44aa00;stroke-width:0.26458332px;stroke-linecap:butt;stroke-linejoin:miter;stroke-opacity:1" />
    </g>
    <path
       style="fill:#8dd35f;stroke:none;stroke-width:0.26458332px;stroke-linecap:butt;stroke-linejoin:miter;stroke-opacity:1"
       d="m 96.783974,224.79158 3.945006,2.25281 c 0,0 6.81408,-11.36595 7.75187,-12.99997 0.9378,-1.63401 1.04556,-5.99947 0.8314,-6.14633 -0.21417,-0.14682 -3.73026,2.17401 -4.71986,3.79867 -0.98959,1.62463 -7.808416,13.09482 -7.808416,13.09482 z m 2.615771,0.84941 c 0,0 5.608995,-9.41744 6.588135,-11.04839 0.97915,-1.63093 2.34452,-3.74466 2.64372,-3.5465 0.2992,0.19817 -0.45355,2.66863 -1.40969,4.29157 -0.95617,1.6229 -6.53146,10.95335 -6.53146,10.95335 z"
       id="path1117"
       inkscape:connector-curvature="0" />
    <ellipse
       style="opacity:1;vector-effect:none;fill:none;fill-opacity:1;stroke:#f9f9f9;stroke-width:3;stroke-linecap:butt;stroke-linejoin:miter;stroke-miterlimit:4;stroke-dasharray:none;stroke-dashoffset:0;stroke-opacity:0.97014926"
       id="ellipse1169"
       cx="126.04544"
       cy="205.82957"
       rx="29.562031"
       ry="29.704077" />
  </g>
  <g
     inkscape:groupmode="layer"
     id="layer3"
     inkscape:label="kółka"
     style="display:none">
    <ellipse
       style="opacity:1;vector-effect:none;fill:none;fill-opacity:0.18283584;stroke:#aaeeff;stroke-width:3;stroke-linecap:butt;stroke-linejoin:miter;stroke-miterlimit:4;stroke-dasharray:none;stroke-dashoffset:0;stroke-opacity:0.97014926"
       id="path931"
       cx="58.208336"
       cy="44.601189"
       rx="29.562031"
       ry="29.704077" />
    <ellipse
       ry="29.704077"
       rx="29.562031"
       cy="44.601189"
       cx="201.83929"
       id="ellipse1109"
       style="opacity:1;vector-effect:none;fill:none;fill-opacity:0.18283584;stroke:#999999;stroke-width:3;stroke-linecap:butt;stroke-linejoin:miter;stroke-miterlimit:4;stroke-dasharray:none;stroke-dashoffset:0;stroke-opacity:0.97014926" />
    <path
       style="fill:none;stroke:#aaeeff;stroke-width:2.5;stroke-linecap:butt;stroke-linejoin:miter;stroke-miterlimit:4;stroke-dasharray:none;stroke-opacity:1"
       d="m 58.043217,80.74096 v 32.07235 h 35.279577"
       id="path1111"
       inkscape:connector-curvature="0" />
    <path
       inkscape:connector-curvature="0"
       id="path1113"
       d="m 200.31695,80.74096 v 32.07235 h -35.27958"
       style="fill:none;stroke:#999999;stroke-width:2.5;stroke-linecap:butt;stroke-linejoin:miter;stroke-miterlimit:4;stroke-dasharray:none;stroke-opacity:1" />
  </g>
</svg>
